HIERARCHY
ROOT joint_Root
{
	OFFSET 0.0 0.0 0.0
	CHANNELS 6 Xposition Yposition Zposition Zrotation Xrotation Yrotation 
	JOINT Hips
	{
		OFFSET -0.726466 93.3139 -2.00062
		CHANNELS 6 Xposition Yposition Zposition Zrotation Xrotation Yrotation 
		JOINT Spine
		{
			OFFSET 15.7357 0.0 0.0
			CHANNELS 6 Xposition Yposition Zposition Zrotation Xrotation Yrotation 
			JOINT Chest
			{
				OFFSET 8.98455 -0.406207 0.0
				CHANNELS 6 Xposition Yposition Zposition Zrotation Xrotation Yrotation 
				JOINT Neck
				{
					OFFSET 16.3773 0.0 0.0
					CHANNELS 6 Xposition Yposition Zposition Zrotation Xrotation Yrotation 
					JOINT Head
					{
						OFFSET 6.45672 0.0 0.0
						CHANNELS 6 Xposition Yposition Zposition Zrotation Xrotation Yrotation 
						End Site
						{
							OFFSET 0.0 0.0 0.0
						}
					}
				}
				JOINT Shoulder_L
				{
					OFFSET 12.9942 -0.242716 4.98039
					CHANNELS 6 Xposition Yposition Zposition Zrotation Xrotation Yrotation 
					JOINT UpperArm_L
					{
						OFFSET 5.34809 0.0 0.0
						CHANNELS 6 Xposition Yposition Zposition Zrotation Xrotation Yrotation 
						JOINT LowerArm_L
						{
							OFFSET 24.3286 1.87007e-05 0.0
							CHANNELS 6 Xposition Yposition Zposition Zrotation Xrotation Yrotation 
							JOINT Hand_L
							{
								OFFSET 22.2916 0.0 0.0
								CHANNELS 6 Xposition Yposition Zposition Zrotation Xrotation Yrotation 
								End Site
								{
									OFFSET 0.0 0.0 0.0
								}
							}
						}
					}
				}
				JOINT Shoulder_R
				{
					OFFSET 12.9945 -0.242716 -4.98039
					CHANNELS 6 Xposition Yposition Zposition Zrotation Xrotation Yrotation 
					JOINT UpperArm_R
					{
						OFFSET -5.34813 0.0 0.0
						CHANNELS 6 Xposition Yposition Zposition Zrotation Xrotation Yrotation 
						JOINT LowerArm_R
						{
							OFFSET -24.3289 0.000322201 0.0
							CHANNELS 6 Xposition Yposition Zposition Zrotation Xrotation Yrotation 
							JOINT Hand_R
							{
								OFFSET -22.2915 -0.000108084 0.0
								CHANNELS 6 Xposition Yposition Zposition Zrotation Xrotation Yrotation 
								End Site
								{
									OFFSET 0.0 0.0 0.0
								}
							}
						}
					}
				}
			}
		}
		JOINT UpperLeg_L
		{
			OFFSET -2.19248 -6.46944 0.0
			CHANNELS 6 Xposition Yposition Zposition Zrotation Xrotation Yrotation 
			JOINT LowerLeg_L
			{
				OFFSET 39.0811 0.0 -1.23785e-05
				CHANNELS 6 Xposition Yposition Zposition Zrotation Xrotation Yrotation 
				JOINT Foot_L
				{
					OFFSET 40.9854 0.0 -1.26872e-05
					CHANNELS 6 Xposition Yposition Zposition Zrotation Xrotation Yrotation 
					JOINT Toes_L
					{
						OFFSET 11.7543 0.0 0.0
						CHANNELS 6 Xposition Yposition Zposition Zrotation Xrotation Yrotation 
						End Site
						{
							OFFSET 0.0 0.0 0.0
						}
					}
				}
			}
		}
		JOINT UpperLeg_R
		{
			OFFSET -2.19251 6.46944 0.0
			CHANNELS 6 Xposition Yposition Zposition Zrotation Xrotation Yrotation 
			JOINT LowerLeg_R
			{
				OFFSET -39.0811 -0.00228153 -0.0401928
				CHANNELS 6 Xposition Yposition Zposition Zrotation Xrotation Yrotation 
				JOINT Foot_R
				{
					OFFSET -40.9854 0.0 0.0
					CHANNELS 6 Xposition Yposition Zposition Zrotation Xrotation Yrotation 
					JOINT Toes_R
					{
						OFFSET -11.7543 0.0 0.0
						CHANNELS 6 Xposition Yposition Zposition Zrotation Xrotation Yrotation 
						End Site
						{
							OFFSET 0.0 0.0 0.0
						}
					}
				}
			}
		}
	}
}
MOTION
Frames:	8
Frame Time:	0.0333333
0.000000 0.000000 0.000000 0.000000 0.000000 -0.000000 -0.835403 91.955500 1.490650 87.936400 -1.650060 5.345300 15.735700 0.000005 -0.000001 83.474000 87.156000 -83.158700 8.984550 -0.406207 -0.000000 -2.113000 -0.673455 0.618079 16.377300 -0.000001 -0.000001 0.093400 -1.576690 0.787158 6.456720 -0.000001 -0.000000 1.692320 -2.348480 0.355281 12.994200 -0.242716 4.980390 -85.549700 -8.976310 -63.489000 5.348090 -0.000007 -0.000001 -59.307000 -51.019900 -59.626800 24.328600 0.000019 0.000005 -1.018330 -1.450190 -35.073500 22.291600 -0.000001 0.000005 18.429300 5.529380 -7.767880 12.994500 -0.242716 -4.980390 91.921300 -4.363030 -66.204900 -5.348130 -0.000001 -0.000004 -48.414900 -50.848100 -64.240700 -24.328900 0.000322 -0.000009 -2.704640 -5.863960 -24.804400 -22.291500 -0.000108 -0.000004 14.561900 5.235940 1.803390 -2.192480 -6.469440 -0.000000 -168.784000 -17.764600 -1.003670 39.081100 -0.000007 -0.000012 -0.195122 0.462237 22.886100 40.985400 -0.000006 -0.000013 -6.745400 -2.085770 -64.236000 11.754300 -0.000000 0.000003 -0.000131 -0.001295 -16.626900 -2.192510 6.469440 -0.000001 173.142000 20.480500 -178.742000 -39.081100 -0.002282 -0.040193 -0.021105 0.066437 20.186500 -40.985400 0.000008 0.000006 -2.860960 2.363430 -63.748700 -11.754300 -0.000006 -0.000006 -0.004240 -0.053911 -18.766200
0.000000 0.000000 0.000000 0.000000 0.000000 -0.000000 -0.839625 91.929900 1.638550 87.983200 -1.543740 5.487460 15.735700 0.000005 -0.000001 83.254300 87.242500 -82.939300 8.984550 -0.406207 -0.000000 -2.287380 -0.675234 0.616458 16.377300 -0.000001 -0.000001 0.131743 -1.522200 0.785016 6.456720 -0.000001 -0.000000 1.625020 -2.120180 0.343409 12.994200 -0.242716 4.980390 -85.359600 -9.324710 -63.391700 5.348090 -0.000007 -0.000001 -57.836800 -50.245600 -63.786300 24.328600 0.000019 0.000005 -1.309440 -1.637250 -38.658800 22.291600 -0.000001 0.000005 18.412200 5.539650 -8.227050 12.994500 -0.242716 -4.980390 92.107200 -4.739740 -65.997300 -5.348130 -0.000001 -0.000004 -49.695800 -51.048100 -70.435000 -24.328900 0.000322 -0.000009 -3.224480 -6.177800 -27.623700 -22.291500 -0.000108 -0.000004 15.016900 5.258590 1.204840 -2.192480 -6.469440 -0.000000 -168.742000 -17.642200 -0.757585 39.081100 -0.000007 -0.000012 -0.198553 0.469874 22.907500 40.985400 -0.000006 -0.000013 -6.787020 -1.996830 -64.358500 11.754300 -0.000000 0.000003 -0.000126 -0.001255 -16.625500 -2.192510 6.469440 -0.000001 172.986000 20.489700 -178.494000 -39.081100 -0.002282 -0.040193 -0.023182 0.071726 20.279600 -40.985400 0.000008 0.000006 -2.958400 2.322340 -63.913300 -11.754300 -0.000006 -0.000006 -0.004313 -0.054655 -18.796500
0.000000 0.000000 0.000000 0.000000 0.000000 -0.000000 -0.861203 91.915400 1.748650 87.995800 -1.381170 5.585420 15.735700 0.000005 -0.000001 82.350200 87.317000 -82.036600 8.984550 -0.406207 -0.000000 -2.445680 -0.742037 0.611349 16.377300 -0.000001 -0.000001 0.113402 -1.531520 0.801206 6.456720 -0.000001 -0.000000 1.553720 -1.902160 0.350681 12.994200 -0.242716 4.980390 -85.161800 -9.641510 -63.188500 5.348090 -0.000007 -0.000001 -56.799600 -49.729200 -69.036000 24.328600 0.000019 0.000005 -1.614060 -1.805860 -41.804200 22.291600 -0.000001 0.000005 18.115700 5.545280 -8.485400 12.994500 -0.242716 -4.980390 92.276900 -5.082060 -65.826900 -5.348130 -0.000001 -0.000004 -52.070900 -51.110400 -78.037500 -24.328900 0.000322 -0.000009 -3.569040 -6.213270 -29.947100 -22.291500 -0.000108 -0.000004 15.281700 5.285300 0.481706 -2.192480 -6.469440 -0.000000 -168.724000 -17.566800 -0.664062 39.081100 -0.000007 -0.000012 -0.197396 0.465725 22.969700 40.985400 -0.000006 -0.000013 -6.792040 -1.956710 -64.425100 11.754300 -0.000000 0.000003 -0.000139 -0.001360 -16.629300 -2.192510 6.469440 -0.000001 172.917000 20.534200 -178.301000 -39.081100 -0.002282 -0.040193 -0.022957 0.070957 20.321500 -40.985400 0.000008 0.000006 -2.989640 2.216330 -64.028300 -11.754300 -0.000006 -0.000006 -0.004207 -0.053578 -18.752600
0.000000 0.000000 0.000000 0.000000 0.000000 -0.000000 -0.867482 91.915100 1.828680 88.023000 -1.222400 5.655140 15.735700 0.000005 -0.000001 81.756800 87.363200 -81.469200 8.984550 -0.406207 -0.000000 -2.544950 -0.781719 0.557816 16.377300 -0.000001 -0.000001 0.018627 -1.599980 0.839518 6.456720 -0.000001 -0.000000 1.547080 -1.790360 0.439151 12.994200 -0.242716 4.980390 -84.950800 -9.978630 -62.983700 5.348090 -0.000007 -0.000001 -56.451000 -49.523600 -75.437000 24.328600 0.000019 0.000005 -1.190770 -1.217200 -44.386000 22.291600 -0.000001 0.000005 17.716300 5.547130 -8.571700 12.994500 -0.242716 -4.980390 92.469300 -5.483040 -65.708900 -5.348130 -0.000001 -0.000004 -54.795000 -50.926300 -86.035700 -24.328900 0.000322 -0.000009 -3.575060 -5.731920 -32.021800 -22.291500 -0.000108 -0.000004 15.863200 5.299630 0.083978 -2.192480 -6.469440 -0.000000 -168.689000 -17.511600 -0.496414 39.081100 -0.000007 -0.000012 -0.198265 0.470043 22.870400 40.985400 -0.000006 -0.000013 -6.794260 -1.783690 -64.420700 11.754300 -0.000000 0.000003 -0.000118 -0.001185 -16.622900 -2.192510 6.469440 -0.000001 172.877000 20.591000 -178.172000 -39.081100 -0.002282 -0.040193 -0.015100 0.049589 20.378500 -40.985400 0.000008 0.000006 -2.704270 2.090800 -64.153700 -11.754300 -0.000006 -0.000006 -0.004453 -0.056071 -18.854200
0.000000 0.000000 0.000000 0.000000 0.000000 -0.000000 -0.885684 91.908700 1.864030 87.995500 -1.050940 5.669510 15.735700 0.000005 -0.000001 80.641900 87.389300 -80.334000 8.984550 -0.406207 -0.000000 -2.611920 -0.876590 0.595849 16.377300 -0.000001 -0.000001 -0.119762 -1.626550 0.837002 6.456720 -0.000001 -0.000000 1.514040 -1.681380 0.433011 12.994200 -0.242716 4.980390 -84.721200 -10.295600 -62.663100 5.348090 -0.000007 -0.000001 -56.703700 -49.313200 -82.261200 24.328600 0.000019 0.000005 -0.603168 -0.563690 -46.939600 22.291600 -0.000001 0.000005 17.678200 5.552940 -8.847250 12.994500 -0.242716 -4.980390 92.707700 -6.010350 -65.692400 -5.348130 -0.000001 -0.000004 -57.815500 -50.424700 -94.185500 -24.328900 0.000322 -0.000009 -3.290010 -4.872940 -34.080400 -22.291500 -0.000108 -0.000004 16.515700 5.327210 -0.702761 -2.192480 -6.469440 -0.000000 -168.653000 -17.460500 -0.531249 39.081100 -0.000007 -0.000012 -0.197575 0.467081 22.928700 40.985400 -0.000006 -0.000013 -6.785930 -1.691560 -64.439100 11.754300 -0.000000 0.000003 -0.000147 -0.001431 -16.632000 -2.192510 6.469440 -0.000001 172.910000 20.675400 -178.128000 -39.081100 -0.002282 -0.040193 -0.011048 0.038594 20.420500 -40.985400 0.000008 0.000006 -2.593980 1.989750 -64.223700 -11.754300 -0.000006 -0.000006 -0.004155 -0.053039 -18.730700
0.000000 0.000000 0.000000 0.000000 0.000000 -0.000000 -0.897804 91.921400 1.890230 88.023400 -0.958218 5.683780 15.735700 0.000005 -0.000001 80.059500 87.393900 -79.758300 8.984550 -0.406207 -0.000000 -2.629750 -0.926764 0.581267 16.377300 -0.000001 -0.000001 -0.190530 -1.630750 0.798701 6.456720 -0.000001 -0.000000 1.315960 -1.657580 0.544468 12.994200 -0.242716 4.980390 -84.505400 -10.592900 -62.378100 5.348090 -0.000007 -0.000001 -56.711600 -49.254900 -88.905500 24.328600 0.000019 0.000005 -1.004000 -0.861458 -49.367600 22.291600 -0.000001 0.000005 17.858900 5.564500 -9.409450 12.994500 -0.242716 -4.980390 92.930200 -6.514760 -65.717400 -5.348130 -0.000001 -0.000004 -60.501100 -49.557100 -101.935000 -24.328900 0.000322 -0.000009 -3.093930 -4.238330 -36.171600 -22.291500 -0.000108 -0.000004 17.306200 5.355340 -1.536850 -2.192480 -6.469440 -0.000000 -168.678000 -17.428700 -0.469209 39.081100 -0.000007 -0.000012 -0.195105 0.463889 22.811100 40.985400 -0.000006 -0.000013 -6.778620 -1.655000 -64.376700 11.754300 -0.000000 0.000003 -0.000122 -0.001220 -16.624100 -2.192510 6.469440 -0.000001 172.895000 20.761900 -178.074000 -39.081100 -0.002282 -0.040193 -0.004751 0.021698 20.406500 -40.985400 0.000008 0.000006 -2.345230 1.932750 -64.260200 -11.754300 -0.000006 -0.000006 -0.004193 -0.053432 -18.746700
0.000000 0.000000 0.000000 0.000000 0.000000 -0.000000 -0.894209 91.929100 1.901450 88.035500 -0.888628 5.625040 15.735700 0.000005 -0.000001 80.108300 87.407300 -79.790700 8.984550 -0.406207 -0.000000 -2.655210 -0.919346 0.613873 16.377300 -0.000001 -0.000001 -0.350979 -1.642970 0.762638 6.456720 -0.000001 -0.000000 1.370060 -1.705460 0.497739 12.994200 -0.242716 4.980390 -84.335100 -10.841900 -62.194900 5.348090 -0.000007 -0.000001 -56.696800 -49.145200 -95.084600 24.328600 0.000019 0.000005 -1.347360 -1.049830 -52.077300 22.291600 -0.000001 0.000005 18.325400 5.572820 -9.832970 12.994500 -0.242716 -4.980390 93.122400 -6.938770 -65.698400 -5.348130 -0.000001 -0.000004 -62.573900 -48.423100 -109.007000 -24.328900 0.000322 -0.000009 -2.882460 -3.624840 -38.524300 -22.291500 -0.000108 -0.000004 18.043100 5.379420 -2.279070 -2.192480 -6.469440 -0.000000 -168.730000 -17.344200 -0.511406 39.081100 -0.000007 -0.000012 -0.192608 0.459326 22.749900 40.985400 -0.000006 -0.000013 -6.777160 -1.673460 -64.354400 11.754300 -0.000000 0.000003 -0.000137 -0.001347 -16.628900 -2.192510 6.469440 -0.000001 172.907000 20.846900 -178.108000 -39.081100 -0.002282 -0.040193 -0.000918 0.011409 20.383300 -40.985400 0.000008 0.000006 -2.253050 1.908380 -64.262400 -11.754300 -0.000006 -0.000006 -0.004164 -0.053138 -18.734700
0.000000 0.000000 0.000000 0.000000 0.000000 -0.000000 -0.892877 91.935200 1.907660 88.007200 -0.872320 5.570720 15.735700 0.000005 -0.000001 80.302400 87.419800 -79.968400 8.984550 -0.406207 -0.000000 -2.676800 -0.899387 0.647025 16.377300 -0.000001 -0.000001 -0.401351 -1.614410 0.637366 6.456720 -0.000001 -0.000000 1.424020 -1.759300 0.654577 12.994200 -0.242716 4.980390 -84.193900 -11.039900 -62.031200 5.348090 -0.000007 -0.000001 -56.615200 -48.902000 -100.786000 24.328600 0.000019 0.000005 -1.753590 -1.240570 -54.729200 22.291600 -0.000001 0.000005 18.512900 5.586290 -10.553500 12.994500 -0.242716 -4.980390 93.267300 -7.285910 -65.765400 -5.348130 -0.000001 -0.000004 -63.779100 -47.131800 -114.791000 -24.328900 0.000322 -0.000009 -2.765900 -3.126270 -41.523300 -22.291500 -0.000108 -0.000004 18.727700 5.403810 -3.060290 -2.192480 -6.469440 -0.000000 -168.710000 -17.325200 -0.539792 39.081100 -0.000007 -0.000012 -0.194311 0.464275 22.710800 40.985400 -0.000006 -0.000013 -6.789340 -1.679310 -64.344400 11.754300 -0.000000 0.000003 -0.000126 -0.001255 -16.625500 -2.192510 6.469440 -0.000001 172.963000 20.886900 -178.132000 -39.081100 -0.002282 -0.040193 0.002207 0.003005 20.337100 -40.985400 0.000008 0.000006 -2.147070 1.903380 -64.254800 -11.754300 -0.000006 -0.000006 -0.004290 -0.054427 -18.787200
